<?xml version="1.0" encoding="UTF-8"?>
<svg id="Layer_1" data-name="Layer 1" xmlns="http://www.w3.org/2000/svg" viewBox="0 0 970.45 730.23">
  <path d="M922.04,433.26c.92,.65,1.81,1.78,2.87,1.97,13.09,2.3,26.23,4.33,39.28,6.81,2.26,.43,4.19,2.58,6.27,3.94-2.03,1.45-4.14,4.24-6.08,4.14-12.02-.65-24.3,3.05-36.02-3.82-6.18-3.62-14.09-6.8-20.88-6.22-7.83,.68-16.09,4.55-22.72,9.12-14.35,9.88-26.43,24.11-41.92,31-19.84,8.82-34.47,24.6-53.51,33.85-7.39,3.59-14.67,4.32-20.49-2.82-4.94-6.05-9.8-12.22-14.12-18.72-6.03-9.07-10.27-10.01-20.18-5.78-10.41,4.45-21.86,6.66-31.86,11.79-9.88,5.06-19.2,11.76-27.53,19.13-11.16,9.87-14.98,10.29-23.81-1.9-4.01-5.53-7.43-11.54-10.62-17.6-6.05-11.46-20.51-14.5-34.55-7.32-16.36,8.37-32.82,16.56-49.35,24.59-9.05,4.39-21.07-.55-24.98-9.87-10.92-26.04-11.74-26.37-36.8-14.25-6.42,3.11-12.95,6.07-19.11,9.64-5.49,3.19-9.18,1.35-13.33-2.51-13.66-12.73-13.88-12.77-27.72-1.36-25.38,20.94-50.42,42.28-76.09,62.85-3.31,2.65-9.51,1.69-14.37,2.4-.32-4.92-.8-9.83-.9-14.75-.08-4.23,.28-8.47,.44-12.7-4.28,.87-9.29,.6-12.72,2.8-11.57,7.41-23.24,14.93-33.61,23.87-11.35,9.79-21.39,21.1-31.74,32.01-1.53,1.61-1.7,4.58-2.36,6.95-5.07,18.18-7.88,37.41-15.77,54.26-7.78,16.61-19.5,31.88-31.73,45.76-9.56,10.84-10.63,10.11-22.39,18.88-2.43,1.81-37.59,10.82-40.93,10.83-26.14,.1-33.01-.75-59.13-.01-11.61,.33-19.11-6.24-25.76-13.08-9.97-10.26-18.44-22.03-27.04-33.54-13.09-17.51-14.51-27.75-27.02-45.67-1.95-2.8-11.06-27.53-11.09-31.15-.19-23.28-3.41-33.67-2.47-56.92,.38-9.37,3.96-18.65,6.39-27.89,3.94-14.95,7.84-29.93,12.37-44.71,1.97-6.45,5.69-12.34,8.22-18.64,7.03-17.51,12.48-35.82,21.13-52.47,9.21-17.74,20.73-34.41,32.46-50.67,9.34-12.94,19.39-25.81,31.2-36.41,12.71-11.41,27.33-20.97,42.05-29.79,14.84-8.9,31.67-13.06,48.39-17.81,11.14-3.17,21.7-4.7,32.89-4.65,2.49,.01,5.62-.34,7.35,.95,5.55,4.16,10.76,12.97,15.77,12.74,8.97-.41,12.64,4.83,18.38,8.75,4.9,3.35,10.95,5.74,16.79,6.72,2.86,.48,6.42-3.2,9.66-5-2.45-3-4.4-7.91-7.42-8.69-26.45-6.81-46.09-24.16-66.44-40.8-9.56-7.82-20.79-13.58-30.9-20.77-8.63-6.14-16.9-12.84-24.99-19.68-1.51-1.28-2.52-4.93-1.76-6.58,.74-1.61,4.37-3.31,6.12-2.81,7.45,2.11,14.65,5.08,21.99,7.6,3.79,1.3,7.71,3.33,11.54,3.26,13.39-.25,25.39,5.22,37.96,7.75,18.82,3.79,38.69,2.73,58.12,2.9,4.87,.04,6.94-4.53,3.6-9-7.1-9.51-13.56-19.8-22.08-27.89-15.88-15.08-33.13-28.73-49.59-43.22-2.36-2.08-3.51-5.53-5.22-8.34,2.8-1.46,5.52-3.97,8.42-4.18,9.54-.7,19.39-3.23,28.17,3.72,1.88,1.49,5.48,.64,8.2,1.25,5.63,1.26,11.2,2.76,16.78,4.2,.9,.23,1.72,.91,2.62,1,17.29,1.89,34.58,3.81,51.88,5.54,8.46,.85,11.87-4.01,10.39-11.53-1.18-6-3.84-11.79-6.37-17.43-6.01-13.35-12.62-26.43-18.23-39.94-.85-2.05,1.91-7.98,3.78-8.37,7.84-1.65,16.59-4.11,23.89-2.14,13.35,3.59,25.92,10.07,38.8,15.41,2.56,1.06,5.08,3.54,7.51,3.41,15.98-.85,28.09,9.07,41.96,14.06,5.9,2.12,13.64,2.32,19.35,.19,2.22-.83,1.49-10.49,1.48-16.13-.03-10-.91-20.01-.52-29.98,.07-1.75,5.33-5.28,6.88-4.67,8.62,3.4,17.4,6.99,25.07,12.09,12.51,8.31,24,18.14,36.34,26.73,8.43,5.87,10.68,4.7,15.49-4.64,5.56-10.79,11.83-21.23,16.99-32.2,2.98-6.34,3.52-13.86,6.71-20.05,3.59-6.98,7.74-14.72,13.83-19.07,6.1-4.34,13.86-1.04,19.54,4.58,15.66,15.49,31.91,30.43,46.81,46.62,4.93,5.36,7.46,13.63,9.11,21.01,.94,4.2,.67,7.24,5.79,7.34,5.02,.1,8.77-1.27,8.84-7.2,.1-8.81-.51-17.71,.61-26.39,.6-4.62,3.53-11.86,6.63-12.57,5.25-1.2,13.28-.04,16.93,3.46,8.99,8.62,16.7,18.76,23.91,29,9.82,13.95,23.04,23.73,37.41,32,2.37,1.37,8.31-.99,11.11-3.37,4.96-4.23,8.22-10.47,13.21-14.65,6.36-5.32,13.55-9.74,20.8-13.82,1.76-.99,5.56,.25,7.71,1.6,9.74,6.1,15.71,14.8,17.9,26.33,.61,3.22,3.73,5.96,5.7,8.93,2.51-1.96,6.23-3.41,7.3-5.97,4.56-10.85,8.28-22.06,12.43-33.09,1.07-2.85,2.18-5.84,3.98-8.23,6.05-8.02,12.11-16.06,18.8-23.53,2.65-2.96,8.23-7.06,10.22-6.08,4.22,2.07,9.22,6.8,9.89,11.07,2.39,15.23,8.55,29.87,6.69,45.93-.57,4.9,3.76,10.31,5.64,15.56,3.74,10.43,3.9,22.32,12.59,30.72,1.74,1.69,3.3,3.74,5.36,4.89,8.01,4.5,8.13,5.61,.29,10.97-2.04,1.39-4.21,3.07-6.52,3.49-11.91,2.15-24.19,2.86-35.76,6.12-12.69,3.58-24.75,9.42-37.11,14.18-2.59,1-5.69,1.06-7.92,2.51-2.85,1.86-5.05,4.71-7.53,7.13,2.83,1.84,5.47,4.74,8.54,5.32,7.27,1.37,14.98,.74,22.07,2.6,7.21,1.89,8.39,6.72,2.7,12.56-4.71,4.84-9.22,8.62-16.8,8.83-9.25,.25-12.96,7.36-9.7,16,3.02,7.99-1.26,20.26-9.08,27.06-6.4,5.56-12.83,11.17-18.62,17.34-1.99,2.12-2.13,5.99-3.11,9.06,2.78,.02,5.87,.86,8.28-.08,13.52-5.27,26.68-11.53,40.36-16.31,9.48-3.32,19.73-4.38,29.38-7.3,4.41-1.34,10.08-3.78,11.91-7.38,4.86-9.59,12.06-13.73,22.26-14.19,2.47-.11,5-.62,7.35-1.39,10.68-3.49,13.15-1.96,13.33,8.99,.15,9.44,.23,18.89-.09,28.32-.29,8.66-3.36,9.97-11.44,8.24-18.74-4.01-36.81-6.58-54.67,6.13-14.74,10.49-32.04,17.38-48.18,25.93-3.31,1.76-7.25,3.1-9.6,5.78-9,10.27-22.55,9.56-33.71,14.53-9.57,4.26-19.88,7.01-30.05,9.76-10.19,2.76-20.65,6.81-30.9,6.55-24.33-.62-48.15,2.56-71.99,6.11-4.84,.72-10.07,2.44-13.86,5.35-2.41,1.85-3.61,6.81-3.36,10.23,.37,5.07,2.9,9.94,3.82,15.03,1.49,8.3,6.15,12.9,14.48,13.33,6.91,.35,13.87-.13,20.77,.31,4.98,.32,9.9,1.54,14.85,2.35,3.44,.56,6.89,1.11,10.34,1.66-.31-2.93-1.7-6.31-.71-8.71,2.1-5.13,4.56-10.8,8.61-14.16,1.98-1.64,8.98,.14,11.73,2.58,6.23,5.53,12,6.83,18.44,1.53,6.02-4.95,12.15-9.93,17.27-15.75,4.4-5,7.79-6.73,14.41-3.44,6.84,3.39,15.62,3.28,21.92,7.27,10.03,6.35,19.06,2.9,28.99,1.27,10.48-1.72,21.32-1.24,31.97-2.06,4.62-.35,9.14-1.91,13.76-2.25,3.18-.23,7.81-.44,9.33,1.38,1.85,2.22,1.82,6.69,1.38,10.02-1.18,8.85-3.59,17.57-4.26,26.43-.2,2.62,3.23,7.15,5.93,8.06,8.23,2.78,16.82,5.04,25.44,6,14.81,1.64,14.86,1.16,8.54,13.88ZM60.17,644.14c1.78,15.81,8.35,28.73,19.98,40.13,8.4,8.24,18.52,12.32,28.21,17.82,14.65,8.31,29.52,8.03,44.12,1.16,14.4-6.78,28.98-13.7,42.03-22.66,8.83-6.06,15.75-15.32,22.3-24.06,2.17-2.9,.53-8.67,.63-13.12-3.46,.86-7.19,1.15-10.31,2.7-5.46,2.71-10.2,7.91-15.84,9.03-17.88,3.57-34.16-3.83-49.23-11.71-28.07-14.69-33.2-42.81-37.37-70.65-1.15-7.69-.18-15.7-.18-26.76,1.32-25.83,2.86-54.48,13.54-82.35,6.26-16.35,10.39-33.27,19.5-48.72,17.43-29.54,39.93-52.54,72.08-66.2,7.97-3.39,15.42-5.71,23.34-4.46,9.33,1.48,18.28,5.18,27.54,7.32,4.49,1.04,9.29,.72,13.95,1.02-.33-5.26,1.42-12.46-1.36-15.43-9.75-10.43-20.57-20.05-32.02-28.59-4.47-3.34-11.66-3.81-17.67-4.07-5.12-.22-10.34,1.67-15.5,2.75-13.59,2.84-28.23,3.49-40.48,9.22-14.22,6.65-26.68,17.35-39.29,27.09-18.53,14.33-28.7,35.47-38.85,55.33-13.44,26.28-22.82,54.68-33.22,82.44-4.36,11.64-7.16,23.9-10.12,36.02-1.53,6.28-.69,13.3-2.96,19.2-6.16,16-7.28,33.84-.99,47.72l18.17,59.85Zm187.13-245.2c-8.29,2.14-16.97,3.33-24.78,6.6-22.29,9.31-37.94,26.33-48.82,47.22-6.22,11.95-10.5,25.14-13.94,38.22-1.52,5.76,1.05,12.67,2.09,19,.59,3.59,2.73,7.1,2.63,10.6-.51,18.24,3.82,35.46,8.44,52.97,4.96,18.82,19.27,25.18,34.69,30.57,3.91,1.36,10.24-.43,13.91-2.98,7.17-4.98,13.09-11.72,19.8-17.4,19.22-16.24,34.7-35.19,41.61-59.77,1.23-4.37,.1-11.4-2.83-14.37-2.93-2.97-9.6-3.63-14.39-3.11-11.04,1.2-16.91,8.64-20.56,18.9-3.33,9.34-11.26,11.47-20.71,10.83-8.87-.6-13.96-5.54-18.77-12.26-9-12.58-2.06-23.26,4.4-32.91,9.84-14.69,15.82-15.44,32.46-9.15,4.24,1.6,9.53,2.54,13.81,1.54,12.9-3.01,25.72-6.65,38.2-11.08,4.34-1.54,6.82-5.88,3.84-11.72-2.44-4.81-4.28-10.39-4.59-15.73-1.53-25.7-20.76-44.44-46.48-45.96Zm220.15,58.76c11.71-2.51,23.64-3.97,35.46-6,1.18-.2,2.27-1.01,3.35-1.63,8.39-4.82,16.64-9.29,26.98-9.47,3.95-.07,7.81-4.82,11.72-7.44-3.58-1.72-7.15-3.46-10.75-5.13-.54-.25-1.45,.09-1.83-.25-2.65-2.38-5.21-4.86-7.8-7.3,2.68-2.15,5.07-5.4,8.1-6.18,4.13-1.07,8.74-.27,13.14-.27,0,.02,0,.04,0,.07,2.83,0,21.52,1.58,23.24,.25,2.88-2.21-6.7-37.47-7.43-48.27-.16-2.42,58.17-30.58,51.98-29.12-12.31,2.9-54.81,7.05-66.81,11.14-18.39,6.28-36.52,13.31-54.98,19.35-8.43,2.76-17.39,3.92-26.11,5.81-1.53,.33-30.52,7.99-32.46,10.21,2.28,1.78,50.29,4.77,50.59,6.19,.3,1.41-1.46,4.08-3.01,4.91-3.29,1.77-6.99,2.78-10.57,3.96-16.61,5.51-74.64,19.45-70.93,20.8,3.39,1.23,30.85,9.27,34.49,10.06,1.77,.38,3.75,2.4,4.44,4.15,.41,1.04-1.18,3.93-2.45,4.38-7.24,2.6-14.62,4.81-22.01,6.98-10.28,3.01-21.59,4.09-30.72,9.15l-66.13,31.36c1.89,.8,4.39,.57,6.54,.29,16.84-2.19,33.68-4.39,50.48-6.87,4.26-.63,29.15-8.18,37.59-9.87l55.88-11.25Zm153.55-149.33c0,.11,0,.23,0,.34-4.4,0-8.81,.1-13.21-.02-12.94-.37-18.43-8.37-13.64-20.01,2.22-5.41-.04-9.04-4.92-10.15-13.49-3.08-26.58,.17-36.98,8.24-8.7,6.75-15.36,16.37-22.06,25.36-4.99,6.69-9.42,14.08-12.54,21.79-2.3,5.68-1.68,12.14,6.78,13.61,11.49,2,27.9-8.45,30.93-19.76,3.04-11.33,9.37-14.59,19.37-8.47,17.03,10.43,35.8,11.6,54.8,11.68,11.38,.05,26.19-12.73,26.97-22.31,1.48-18.04-19.07-33.92-35.73-26.49-5.24,2.34-12.33,10.76-11.35,14.52,1.79,6.86,9.5,8.47,17.27,4.68,3.36-1.64,8.01-1.08,12.01-.74,1.61,.13,3.04,2.34,4.55,3.6-1.44,1.38-2.8,3.84-4.35,3.96-5.93,.47-11.92,.19-17.89,.19Zm93.31-13.98v.2c2.52,0,5.05-.19,7.55,.03,11.95,1.06,23.4-.06,32.42-8.94,2.11-2.08,2.61-5.79,3.85-8.75-2.54-.5-5.1-1.5-7.62-1.4-11.92,.43-23.84,1.78-35.72,1.43-3.86-.11-8.86-3.59-10.95-6.99-1.38-2.24,.68-7.64,2.65-10.68,4.4-6.79,2.76-13.02-5.23-15.77-2.34-.81-5.11-.47-7.36-1.42-19.12-8.05-38.19-6.6-57.49-.53-9.07,2.85-18.34,5.52-27.71,6.83-7.92,1.11-11.04,4.66-11.02,12.23,.02,7.7,3.52,11.63,11.33,11.95,4.96,.2,9.95,.59,14.82,1.47,5.69,1.03,11.2,3.32,16.91,3.89,6.85,.69,13.96-.66,20.72,.42,5.47,.87,12.03,2.68,15.54,6.45,7.13,7.69,14.91,10.85,25.06,9.67,4.04-.47,8.18-.08,12.27-.08Zm-104.38,69.6c-6.25,0-10.67-.27-15.04,.06-8.91,.66-21.02,8.36-22.24,13.84-1.93,8.64,11.24,28.98,20.34,30.13,10.23,1.29,20.64,2.1,30.94,1.78,14.98-.46,22.56-16.52,15.7-29.7-6.96-13.37-16.91-18.79-29.69-16.1Zm114.75-36.46c0,.09,.01,.18,.02,.26,6.29,0,12.85,1.15,18.82-.24,12.85-2.98,26.44-5.22,35.36-16.58,1.61-2.05,1.58-5.38,2.3-8.12-2.64,.17-6.14-.7-7.77,.67-8.13,6.84-17.66,5.2-26.96,5.54-4.32,.16-8.66,.82-12.92,1.62-6.04,1.13-11.97,3.08-18.05,3.78-5.27,.61-10.99-1.15-15.92,.23-4.07,1.14-7.29,5.34-10.88,8.19,3.85,2,7.6,5.44,11.57,5.71,8.08,.55,16.28-.61,24.44-1.07Zm130.49,95.21c-.01-.07-.02-.14-.04-.22-21.21,1.85-42.42,3.58-63.6,5.72-2.26,.23-6.05,2.94-6.01,4.41,.07,2.56,2.02,5.92,4.22,7.34,2.41,1.55,6,1.78,9.06,1.71,14.28-.32,28.29,.81,42.63-4.41,11.2-4.07,24.99,.37,36.07-7.24,2.1-1.45,3.72-3.59,5.57-5.42-2.45-1.34-4.92-3.84-7.36-3.81-6.85,.08-13.69,1.2-20.53,1.91Zm-152.92,17.18c.06,.51,.12,1.01,.18,1.52,6.28,0,12.65,.65,18.81-.22,4.3-.61,8.3-3.3,12.44-5.06-4.32-1.47-8.65-2.94-12.98-4.39-.28-.09-.63,0-.93,.05-29.75,4.82-58.54,.61-86.92-8.66-2.7-.88-6.59,.58-9.42,1.98-1.16,.58-2.01,4.9-1.18,5.76,2.16,2.22,5.16,3.96,8.13,4.99,5.44,1.87,11.04,3.41,16.69,4.5,7.88,1.53,15.9,3.66,23.8,3.46,10.49-.26,20.92-2.52,31.38-3.92Zm97.31-201c8.81-1.44,16.1-1.83,22.75-4.08,3.01-1.02,4.75-5.77,7.07-8.82-3.11-.6-6.36-2.08-9.32-1.64-15.12,2.22-29.83,2.96-41.99-8.62-4.77-4.55-9.9-5.86-15-1.39-2.5,2.19-3.75,5.81-5.57,8.78,4.64,2.45,9.07,5.5,13.96,7.23,7.77,2.75,15.87,4.58,23.8,6.89,2.06,.6,4.02,1.54,4.3,1.65Zm-80.13-18.64c-4.37,3.61-9.87,6.6-12.57,11.21-.97,1.66,4.19,9.74,7.62,10.59,11,2.72,22.5,4.46,33.81,4.49,6.19,.02,9.16-10.4,4.29-12.79-9.94-4.88-20.51-8.46-33.14-13.51Zm68.41,52.5c6.14-5.94,12.07-11.68,18.01-17.43-2.06-2.02-5.39-6.09-5.97-5.73-6.02,3.72-11.81,7.9-17.11,12.58-1.22,1.08-.83,4.72-.18,6.89,.39,1.3,2.73,2.01,5.25,3.7Zm-59.77,2.24c6.02-4.87,11.63-9.4,17.23-13.93-5.78-.54-11.56-1.12-17.35-1.6-.9-.08-2.18-.05-2.71,.49-2.68,2.74-5.16,5.67-7.72,8.53,2.82,1.74,5.63,3.47,10.55,6.5Zm76.3-67.01c-3.04,2.67-5.13,4.5-7.21,6.34,3.18,1.66,6.23,4.17,9.57,4.64,1.95,.27,4.35-2.75,6.55-4.28-2.71-2.03-5.42-4.07-8.91-6.69Zm-21.94,39.43c.11-.96,.22-1.92,.33-2.88-2.95-1.7-5.75-3.94-8.93-4.81-1.15-.32-3.2,2.64-4.84,4.1,2.51,2.02,4.79,4.59,7.65,5.82,1.36,.58,3.83-1.4,5.79-2.23Z"/>
</svg>